<svg width="16" height="63" viewBox="0 0 16 63" fill="none" xmlns="http://www.w3.org/2000/svg">
<path d="M12.2616 56.7574L8.3736 59.0134V60.6934H12.2616V62.9014H1.0616L1.0616 58.4214C1.0616 57.3867 1.42426 56.5067 2.1496 55.7814C2.87493 55.0561 3.7496 54.6934 4.7736 54.6934C5.46693 54.6934 6.11226 54.8907 6.7096 55.2854C7.29626 55.6801 7.73893 56.2027 8.0376 56.8534L12.2616 54.3734V56.7574ZM3.1256 60.6934H6.4376V58.4214C6.4376 58.0054 6.2776 57.6481 5.9576 57.3494C5.62693 57.0507 5.23226 56.9014 4.7736 56.9014C4.31493 56.9014 3.9256 57.0507 3.6056 57.3494C3.2856 57.6481 3.1256 58.0054 3.1256 58.4214L3.1256 60.6934ZM12.4856 48.9754C12.4856 50.2234 12.1336 51.2474 11.4296 52.0474C10.7256 52.8474 9.7816 53.2474 8.5976 53.2474H1.0616L1.0616 51.0554H8.4216C9.00826 51.0554 9.47226 50.8901 9.8136 50.5594C10.1549 50.2181 10.3256 49.6901 10.3256 48.9754C10.3256 48.2607 10.1549 47.7381 9.8136 47.4074C9.47226 47.0661 9.00826 46.8954 8.4216 46.8954H1.0616L1.0616 44.6874H8.5976C9.7816 44.6874 10.7256 45.0874 11.4296 45.8874C12.1336 46.6874 12.4856 47.7167 12.4856 48.9754Z" fill="#828282"/>
<path d="M15.4616 38.6983H0.741596L0.741596 36.6343H15.4616V38.6983ZM10.1496 28.3497V23.6297H12.2616V30.5577H1.0616L1.0616 23.7097H3.1736L3.1736 28.3497H5.5576L5.5576 24.1097H7.6376L7.6376 28.3497H10.1496ZM1.0616 15.5933V13.3853H12.2616V15.0653L5.4136 19.8653H12.2616L12.2616 22.0733H1.0616V20.3933L7.8936 15.5933H1.0616ZM6.2456 0.315656H7.1096C8.7096 0.315656 10.0056 0.827656 10.9976 1.85166C11.9896 2.87566 12.4856 4.19832 12.4856 5.81966C12.4856 7.54766 11.9256 8.98232 10.8056 10.1237C9.67493 11.2543 8.29893 11.8197 6.6776 11.8197C5.0456 11.8197 3.66426 11.2597 2.5336 10.1397C1.40293 9.00899 0.837596 7.61166 0.837596 5.94766C0.837596 4.90232 1.0776 3.94766 1.5576 3.08366C2.02693 2.21966 2.65626 1.54766 3.4456 1.06766L4.5336 2.95566C4.07493 3.22232 3.7016 3.62766 3.4136 4.17166C3.1256 4.70499 2.9816 5.30232 2.9816 5.96366C2.9816 7.03032 3.3336 7.91032 4.0376 8.60366C4.73093 9.28632 5.61093 9.62766 6.6776 9.62766C7.7336 9.62766 8.60826 9.28099 9.3016 8.58766C9.98426 7.88366 10.3256 6.95566 10.3256 5.80366C10.3256 4.95032 10.1389 4.24632 9.7656 3.69166C9.3816 3.12632 8.85893 2.74232 8.1976 2.53966V5.93166H6.2456V0.315656Z" fill="black"/>
</svg>
